# xmcd CD database file
#
# Track frame offsets:
#	150
#	23441
#	45098
#	73457
#	100055
#	117772
#	135447
#	158479
#	180429
#	195456
#	217759
#	243590
#
# Disc length: 3615 seconds
#
# Revision: 0
# Processed by: cddbd v1.5.2PL0 Copyright (c) Steve Scherf et al.
# Submitted via: CDex 1.51
#
DISCID=8c0e1d0c
DTITLE=Tab Two - Two Thumbs up - Disc 2
DYEAR=2012
DGENRE=Jazz
TTITLE0=Belle Affaire
TTITLE1=Vraiment Paris
TTITLE2=No Way No War
TTITLE3=Wanna Lay
TTITLE4=Think Tank
TTITLE5=Hip Jazz
TTITLE6=Lieblingslied
TTITLE7=This beat goes boom
TTITLE8=Club Mambo
TTITLE9=Out-O-Fear
TTITLE10=On and On
TTITLE11=Mind Movie
EXTD=YEAR: 2012
EXTT0=
EXTT1=
EXTT2=
EXTT3=
EXTT4=
EXTT5=
EXTT6=
EXTT7=
EXTT8=
EXTT9=
EXTT10=
EXTT11=
PLAYORDER=
